<svg width="1024" height="1024" viewBox="0 0 1024 1024" fill="none" xmlns="http://www.w3.org/2000/svg">
  <title>CodePal app icon concept</title>
  <defs>
    <linearGradient id="surface" x1="154" y1="120" x2="870" y2="904" gradientUnits="userSpaceOnUse">
      <stop stop-color="#20242D" />
      <stop offset="0.52" stop-color="#111721" />
      <stop offset="1" stop-color="#050910" />
    </linearGradient>
    <radialGradient id="glow" cx="0" cy="0" r="1" gradientUnits="userSpaceOnUse" gradientTransform="translate(348 262) rotate(48) scale(560 520)">
      <stop stop-color="#39FFB6" stop-opacity="0.3" />
      <stop offset="0.52" stop-color="#21C7FF" stop-opacity="0.1" />
      <stop offset="1" stop-color="#21C7FF" stop-opacity="0" />
    </radialGradient>
    <linearGradient id="mark" x1="276" y1="284" x2="640" y2="740" gradientUnits="userSpaceOnUse">
      <stop stop-color="#B9FFD8" />
      <stop offset="1" stop-color="#27F097" />
    </linearGradient>
    <linearGradient id="companion" x1="640" y1="366" x2="760" y2="604" gradientUnits="userSpaceOnUse">
      <stop stop-color="#7DE2FF" />
      <stop offset="1" stop-color="#2D8CFF" />
    </linearGradient>
    <filter id="markShadow" x="174" y="198" width="694" height="704" filterUnits="userSpaceOnUse" color-interpolation-filters="sRGB">
      <feFlood flood-opacity="0" result="BackgroundImageFix" />
      <feColorMatrix in="SourceAlpha" type="matrix" values="0 0 0 0 0 0 0 0 0 0 0 0 0 0 0 0 0 0 127 0" result="hardAlpha" />
      <feOffset dy="30" />
      <feGaussianBlur stdDeviation="32" />
      <feComposite in2="hardAlpha" operator="out" />
      <feColorMatrix type="matrix" values="0 0 0 0 0 0 0 0 0 0.04 0 0 0 0 0.06 0 0 0 0.55 0" />
      <feBlend mode="normal" in2="BackgroundImageFix" result="effect1_dropShadow" />
      <feBlend mode="normal" in="SourceGraphic" in2="effect1_dropShadow" result="shape" />
    </filter>
  </defs>

  <rect x="96" y="96" width="832" height="832" rx="190" fill="url(#surface)" />
  <rect x="118" y="118" width="788" height="788" rx="172" fill="url(#glow)" />
  <g filter="url(#markShadow)">
    <path d="M640 336C594 292 532 266 462 266C326 266 218 374 218 512C218 650 326 758 462 758C532 758 594 732 640 688" stroke="url(#mark)" stroke-width="122" stroke-linecap="round" />
    <circle cx="682" cy="512" r="88" fill="url(#companion)" />
  </g>
</svg>
