<svg width="1280" height="720" viewBox="0 0 1280 720" fill="none" xmlns="http://www.w3.org/2000/svg">
  <title>CodePal icon redesign preview</title>
  <defs>
    <g id="trayIconSource">
      
        
        <g stroke="currentColor" stroke-width="2.15" stroke-linecap="round" stroke-linejoin="round">
          <rect x="6.75" y="8.25" width="18.5" height="15.5" rx="4.5" />
          <path d="M11.25 20H20.75" />
          <path d="M11.25 12.75H20.75" />
        </g>
        <g fill="currentColor">
          <circle cx="11.75" cy="16" r="1.25" />
          <circle cx="16" cy="15.5" r="1.25" />
          <circle cx="20.25" cy="16" r="1.25" />
        </g>
      
    </g>
    <g id="appIconSource">
      
        
        <defs>
          <linearGradient id="surface" x1="168" y1="112" x2="856" y2="912" gradientUnits="userSpaceOnUse">
            <stop stop-color="#17202D" />
            <stop offset="0.52" stop-color="#253142" />
            <stop offset="1" stop-color="#0E141D" />
          </linearGradient>
          <linearGradient id="edge" x1="214" y1="144" x2="810" y2="884" gradientUnits="userSpaceOnUse">
            <stop stop-color="#FFFFFF" stop-opacity="0.32" />
            <stop offset="0.42" stop-color="#FFFFFF" stop-opacity="0.08" />
            <stop offset="1" stop-color="#FFFFFF" stop-opacity="0.18" />
          </linearGradient>
          <linearGradient id="panelStroke" x1="246" y1="272" x2="778" y2="752" gradientUnits="userSpaceOnUse">
            <stop stop-color="#F8FAFC" />
            <stop offset="1" stop-color="#CBD5E1" />
          </linearGradient>
          <linearGradient id="statusDots" x1="332" y1="398" x2="692" y2="564" gradientUnits="userSpaceOnUse">
            <stop stop-color="#34D399" />
            <stop offset="0.5" stop-color="#38BDF8" />
            <stop offset="1" stop-color="#FBBF24" />
          </linearGradient>
          <filter id="lift" x="132" y="128" width="760" height="784" filterUnits="userSpaceOnUse" color-interpolation-filters="sRGB">
            <feFlood flood-opacity="0" result="BackgroundImageFix" />
            <feColorMatrix in="SourceAlpha" type="matrix" values="0 0 0 0 0 0 0 0 0 0 0 0 0 0 0 0 0 0 127 0" result="hardAlpha" />
            <feOffset dy="38" />
            <feGaussianBlur stdDeviation="40" />
            <feComposite in2="hardAlpha" operator="out" />
            <feColorMatrix type="matrix" values="0 0 0 0 0.02 0 0 0 0 0.03 0 0 0 0 0.05 0 0 0 0.34 0" />
            <feBlend mode="normal" in2="BackgroundImageFix" result="effect1_dropShadow" />
            <feBlend mode="normal" in="SourceGraphic" in2="effect1_dropShadow" result="shape" />
          </filter>
        </defs>
      
        <rect x="96" y="96" width="832" height="832" rx="190" fill="url(#surface)" />
        <rect x="118" y="118" width="788" height="788" rx="172" stroke="url(#edge)" stroke-width="18" />
        <path d="M204 704C344 786 520 820 724 746C794 720 846 668 868 598V736C868 812 806 874 730 874H294C218 874 156 812 156 736V592C168 640 184 676 204 704Z" fill="#090E16" fill-opacity="0.22" />
      
        <g filter="url(#lift)">
          <rect x="256" y="292" width="512" height="440" rx="118" stroke="url(#panelStroke)" stroke-width="58" />
          <path d="M360 610H664" stroke="#E2E8F0" stroke-width="42" stroke-linecap="round" />
          <path d="M360 408H664" stroke="#E2E8F0" stroke-opacity="0.72" stroke-width="34" stroke-linecap="round" />
          <path d="M392 506V506.5" stroke="url(#statusDots)" stroke-width="70" stroke-linecap="round" />
          <path d="M512 506V506.5" stroke="url(#statusDots)" stroke-width="70" stroke-linecap="round" />
          <path d="M632 506V506.5" stroke="url(#statusDots)" stroke-width="70" stroke-linecap="round" />
        </g>
      
    </g>
  </defs>

  <rect width="1280" height="720" fill="#F6F7F9" />
  <text x="96" y="84" fill="#111827" font-family="Avenir Next, Helvetica, Arial, sans-serif" font-size="34" font-weight="700">CodePal Icon Redesign</text>
  <text x="96" y="122" fill="#526070" font-family="Avenir Next, Helvetica, Arial, sans-serif" font-size="17">A centered app icon plus a separate transparent macOS menu bar glyph.</text>

  <g transform="translate(96 170)">
    <rect width="384" height="420" rx="28" fill="#FFFFFF" stroke="#D8DEE8" />
    <text x="32" y="50" fill="#111827" font-family="Avenir Next, Helvetica, Arial, sans-serif" font-size="20" font-weight="700">App Icon</text>
    <g transform="translate(64 82) scale(0.25)">
      <use href="#appIconSource" />
    </g>
    <text x="32" y="378" fill="#526070" font-family="Avenir Next, Helvetica, Arial, sans-serif" font-size="15">Dock/Finder asset with color and depth.</text>
  </g>

  <g transform="translate(528 170)">
    <rect width="656" height="420" rx="28" fill="#FFFFFF" stroke="#D8DEE8" />
    <text x="32" y="50" fill="#111827" font-family="Avenir Next, Helvetica, Arial, sans-serif" font-size="20" font-weight="700">Menu Bar Template</text>

    <rect x="32" y="92" width="592" height="54" rx="18" fill="#F4F4F5" stroke="#D1D5DB" />
    <circle cx="66" cy="119" r="5" fill="#EF4444" />
    <circle cx="86" cy="119" r="5" fill="#F59E0B" />
    <circle cx="106" cy="119" r="5" fill="#22C55E" />
    <text x="164" y="125" fill="#71717A" font-family="Avenir Next, Helvetica, Arial, sans-serif" font-size="14">Light menu bar</text>
    <g transform="translate(548 103)" color="#1F2937">
      <use href="#trayIconSource" />
    </g>

    <rect x="32" y="172" width="592" height="54" rx="18" fill="#18181B" stroke="#27272A" />
    <circle cx="66" cy="199" r="5" fill="#EF4444" />
    <circle cx="86" cy="199" r="5" fill="#F59E0B" />
    <circle cx="106" cy="199" r="5" fill="#22C55E" />
    <text x="164" y="205" fill="#A1A1AA" font-family="Avenir Next, Helvetica, Arial, sans-serif" font-size="14">Dark menu bar</text>
    <g transform="translate(548 183)" color="#F4F4F5">
      <use href="#trayIconSource" />
    </g>

    <g transform="translate(32 270)">
      <rect width="92" height="92" rx="16" fill="#F8FAFC" stroke="#E5E7EB" />
      <g transform="translate(30 30)" color="#111827">
        <use href="#trayIconSource" />
      </g>
      <text x="116" y="36" fill="#111827" font-family="Avenir Next, Helvetica, Arial, sans-serif" font-size="16" font-weight="700">32x32 transparent source</text>
      <text x="116" y="62" fill="#526070" font-family="Avenir Next, Helvetica, Arial, sans-serif" font-size="14">No background fill, top strip, frame shadow, or scaled app icon details.</text>
    </g>
  </g>
</svg>
